<?xml version="1.0" standalone="no"?>
<!DOCTYPE svg PUBLIC "-//W3C//DTD SVG 20010904//EN"
 "http://www.w3.org/TR/2001/REC-SVG-20010904/DTD/svg10.dtd">
<svg version="1.0" xmlns="http://www.w3.org/2000/svg"
 width="100.000000pt" height="100.000000pt" viewBox="0 0 100.000000 100.000000"
 preserveAspectRatio="xMidYMid meet">
<metadata>
Created by potrace 1.15, written by Peter Selinger 2001-2017
</metadata>
<g transform="translate(0.000000,100.000000) scale(0.100000,-0.100000)"
fill="#000000" stroke="none">
<path d="M423 785 c-109 -30 -180 -103 -209 -215 -19 -76 -13 -124 28 -208 22
-48 42 -72 79 -99 l49 -35 0 -69 c0 -61 3 -73 25 -94 22 -22 32 -25 105 -25
73 0 83 3 105 25 22 21 25 33 25 94 l0 69 49 35 c37 27 57 51 79 99 41 84 47
132 28 208 -29 114 -100 186 -213 215 -68 18 -82 18 -150 0z"/>
</g>
</svg>
