<?xml version="1.0" encoding="UTF-8" standalone="no"?>
<!DOCTYPE svg PUBLIC "-//W3C//DTD SVG 1.1//EN" "http://www.w3.org/Graphics/SVG/1.1/DTD/svg11.dtd">
<svg version="1.1" xmlns="http://www.w3.org/2000/svg" xmlns:xlink="http://www.w3.org/1999/xlink" preserveAspectRatio="xMidYMid meet" viewBox="0 0 384 384" width="384pt" height="384pt"><defs><path d="M384 0C384 0 384 0 384 0C384 230.4 384 358.4 384 384C384 384 384 384 384 384C153.6 384 25.6 384 0 384C0 384 0 384 0 384C0 153.6 0 25.6 0 0C0 0 0 0 0 0C230.4 0 358.4 0 384 0Z" id="aGkh5jlzG"></path><path d="M0 384L0 0L384 0L384 384L0 384ZM32 352L352 352L352 32L32 32L32 352Z" id="c1vuZhjjfH"></path><path d="M217.35 66.64L221.93 67.65L226.45 68.83L230.91 70.16L235.3 71.66L239.62 73.3L243.85 75.09L248.02 77.03L252.09 79.12L256.09 81.34L259.99 83.7L263.8 86.19L267.52 88.81L271.14 91.56L274.66 94.43L278.07 97.43L281.37 100.54L284.56 103.76L287.64 107.09L290.6 110.54L293.43 114.08L296.15 117.73L298.73 121.47L301.18 125.31L303.5 129.24L305.68 133.26L307.72 137.36L309.62 141.54L311.36 145.8L312.96 150.14L314.4 154.55L315.69 159.02L316.81 163.57L317.77 168.17L318.57 172.83L319.19 177.55L319.64 182.32L319.91 187.14L320 192L319.91 196.86L319.64 201.68L319.19 206.45L318.57 211.17L317.77 215.83L316.81 220.43L315.69 224.98L314.4 229.45L312.96 233.86L311.36 238.2L309.62 242.46L307.72 246.64L305.68 250.74L303.5 254.76L301.18 258.69L298.73 262.53L296.15 266.27L293.43 269.92L290.6 273.46L287.64 276.91L284.56 280.24L281.37 283.46L278.07 286.57L274.66 289.57L271.14 292.44L267.52 295.19L263.8 297.81L259.99 300.3L256.09 302.66L252.09 304.88L248.02 306.97L243.85 308.91L239.62 310.7L235.3 312.34L230.91 313.84L226.45 315.17L221.93 316.35L217.35 317.36L212.7 318.21L208 318.89L176 318.89L171.3 318.21L166.65 317.36L162.07 316.35L157.55 315.17L153.09 313.84L148.7 312.34L144.38 310.7L140.15 308.91L135.98 306.97L131.91 304.88L127.91 302.66L124.01 300.3L120.2 297.81L116.48 295.19L112.86 292.44L109.34 289.57L105.93 286.57L102.63 283.46L99.44 280.24L96.36 276.91L93.4 273.46L90.57 269.92L87.85 266.27L85.27 262.53L82.82 258.69L80.5 254.76L78.32 250.74L76.28 246.64L74.38 242.46L72.64 238.2L71.04 233.86L69.6 229.45L68.31 224.98L67.19 220.43L66.23 215.83L65.43 211.17L64.81 206.45L64.36 201.68L64.09 196.86L64 192L64.09 187.14L64.36 182.32L64.81 177.55L65.43 172.83L66.23 168.17L67.19 163.57L68.31 159.02L69.6 154.55L71.04 150.14L72.64 145.8L74.38 141.54L76.28 137.36L78.32 133.26L80.5 129.24L82.82 125.31L85.27 121.47L87.85 117.73L90.57 114.08L93.4 110.54L96.36 107.09L99.44 103.76L102.63 100.54L105.93 97.43L109.34 94.43L112.86 91.56L116.48 88.81L120.2 86.19L124.01 83.7L127.91 81.34L131.91 79.12L135.98 77.03L140.15 75.09L144.38 73.3L148.7 71.66L153.09 70.16L157.55 68.83L162.07 67.65L166.65 66.64L171.3 65.79L176 65.11L208 65.11L212.7 65.79L217.35 66.64ZM176 144L176 97.45L172.62 98.08L169.28 98.83L165.99 99.7L162.75 100.67L159.55 101.76L156.4 102.96L153.31 104.26L150.27 105.66L147.3 107.17L144.38 108.77L141.52 110.48L138.73 112.27L136.01 114.16L133.35 116.14L130.77 118.21L128.26 120.36L125.82 122.6L123.47 124.92L121.19 127.32L119 129.79L116.89 132.34L114.87 134.96L112.94 137.65L111.11 140.41L109.36 143.24L107.71 146.13L106.16 149.08L104.71 152.09L103.37 155.15L102.13 158.27L100.99 161.45L99.97 164.67L99.06 167.94L98.26 171.26L97.58 174.62L97.02 178.02L96.57 181.46L96.26 184.94L96.06 188.46L96 192L96.06 195.54L96.26 199.06L96.57 202.54L97.02 205.98L97.58 209.38L98.26 212.74L99.06 216.06L99.97 219.33L100.99 222.55L102.13 225.72L103.37 228.85L104.71 231.91L106.16 234.92L107.71 237.87L109.36 240.76L111.11 243.59L112.94 246.34L114.87 249.04L116.89 251.66L119 254.21L121.19 256.68L123.47 259.08L125.82 261.4L128.26 263.63L130.77 265.79L133.35 267.85L136.01 269.83L138.73 271.72L141.52 273.52L144.38 275.22L147.3 276.83L150.27 278.33L153.31 279.74L156.4 281.04L159.55 282.24L162.75 283.32L165.99 284.3L169.28 285.17L172.62 285.92L176 286.55L176 240L208 240L208 286.55L211.38 285.92L214.72 285.17L218.01 284.3L221.25 283.33L224.45 282.24L227.6 281.04L230.69 279.74L233.73 278.34L236.7 276.83L239.62 275.23L242.48 273.52L245.27 271.73L247.99 269.84L250.65 267.86L253.23 265.79L255.74 263.64L258.18 261.4L260.53 259.08L262.81 256.68L265 254.21L267.11 251.66L269.13 249.04L271.06 246.35L272.89 243.59L274.64 240.76L276.29 237.87L277.84 234.92L279.29 231.91L280.63 228.85L281.87 225.73L283.01 222.55L284.03 219.33L284.94 216.06L285.74 212.74L286.42 209.38L286.98 205.98L287.43 202.54L287.74 199.06L287.94 195.54L288 192L287.94 188.46L287.74 184.94L287.43 181.46L286.98 178.02L286.42 174.62L285.74 171.26L284.94 167.94L284.03 164.67L283.01 161.45L281.87 158.28L280.63 155.15L279.29 152.09L277.84 149.08L276.29 146.13L274.64 143.24L272.89 140.41L271.06 137.66L269.13 134.96L267.11 132.34L265 129.79L262.81 127.32L260.53 124.92L258.18 122.6L255.74 120.37L253.23 118.21L250.65 116.15L247.99 114.17L245.27 112.28L242.48 110.48L239.62 108.78L236.7 107.17L233.73 105.67L230.69 104.26L227.6 102.96L224.45 101.76L221.25 100.68L218.01 99.7L214.72 98.83L211.38 98.08L208 97.45L208 144L176 144Z" id="fix0AHpGd"></path><path d="M128 208L128 176L160 176L160 208L128 208Z" id="afM6bZ8oJ"></path><path d="M224 208L224 176L256 176L256 208L224 208Z" id="i1t7rBh6Zm"></path><path d="M249.87 8.68L187.94 164.52L249.87 164.52L205.63 277.07L373.74 121.23L285.26 121.23L347.2 8.68L249.87 8.68Z" id="ciALR01Qc"></path></defs><g><g><g><use xlink:href="#aGkh5jlzG" opacity="1" fill="#000000" fill-opacity="0"></use><g><use xlink:href="#aGkh5jlzG" opacity="1" fill-opacity="0" stroke="#000000" stroke-width="1" stroke-opacity="0"></use></g></g><g><use xlink:href="#c1vuZhjjfH" opacity="1" fill="#000000" fill-opacity="1"></use><g><use xlink:href="#c1vuZhjjfH" opacity="1" fill-opacity="0" stroke="#000000" stroke-width="1" stroke-opacity="0"></use></g></g><g><use xlink:href="#fix0AHpGd" opacity="1" fill="#000000" fill-opacity="1"></use><g><use xlink:href="#fix0AHpGd" opacity="1" fill-opacity="0" stroke="#000000" stroke-width="1" stroke-opacity="0"></use></g></g><g><use xlink:href="#afM6bZ8oJ" opacity="1" fill="#000000" fill-opacity="1"></use><g><use xlink:href="#afM6bZ8oJ" opacity="1" fill-opacity="0" stroke="#000000" stroke-width="1" stroke-opacity="0"></use></g></g><g><use xlink:href="#i1t7rBh6Zm" opacity="1" fill="#000000" fill-opacity="1"></use><g><use xlink:href="#i1t7rBh6Zm" opacity="1" fill-opacity="0" stroke="#000000" stroke-width="1" stroke-opacity="0"></use></g></g><g><use xlink:href="#ciALR01Qc" opacity="1" fill="#ffe21b" fill-opacity="1"></use></g></g></g></svg>
