<svg height="384pt" viewBox="0 0 384 384" width="384pt" xmlns="http://www.w3.org/2000/svg"><path d="m0 384h384v-384h-384zm32-352h320v320h-320zm0 0"/><path d="m208 65.113281h-32c-63.039062 7.910157-112 61.742188-112 126.886719s48.960938 118.976562 112 126.886719h32c63.039062-7.910157 112-61.742188 112-126.886719s-48.960938-118.976562-112-126.886719zm0 221.4375v-46.550781h-32v46.550781c-45.328125-7.65625-80-47.078125-80-94.550781s34.671875-86.902344 80-94.550781v46.550781h32v-46.550781c45.328125 7.65625 80 47.078125 80 94.550781s-34.671875 86.902344-80 94.550781zm0 0"/><path d="m128 176h32v32h-32zm0 0"/><path d="m224 176h32v32h-32zm0 0"/></svg>