<svg version="1.1" xmlns="http://www.w3.org/2000/svg" xmlns:xlink="http://www.w3.org/1999/xlink" style="" xml:space="preserve" width="512" height="512"><rect id="backgroundrect" width="100%" height="100%" x="0" y="0" fill="none" stroke="none" />
















<g class="currentLayer" style=""><title>Layer 1</title><g id="svg_1" class="">
	<g id="svg_2">
		<g id="svg_3">
			<rect x="256" width="32" height="32" id="svg_4"/>
			<rect x="320" width="32" height="32" id="svg_5"/>
			<path d="M512,96V0H384v32h96v32H32V32h192V0H0v96h32v384H0v32h512v-32h-32V96H512z M448,480H64V224h384V480z M448,192H64v-32h384     V192z M448,128H64V96h384V128z" id="svg_6"/>
		</g>
	</g>
</g><g id="svg_7">
</g><g id="svg_8">
</g><g id="svg_9">
</g><g id="svg_10">
</g><g id="svg_11">
</g><g id="svg_12">
</g><g id="svg_13">
</g><g id="svg_14">
</g><g id="svg_15">
</g><g id="svg_16">
</g><g id="svg_17">
</g><g id="svg_18">
</g><g id="svg_19">
</g><g id="svg_20">
</g><g id="svg_21">
</g><rect fill="#000000" style="color: rgb(0, 0, 0);" stroke-dashoffset="" fill-rule="nonzero" x="57.999993324279785" y="449.77778363227844" width="399" height="32" class="" fill-opacity="1" id="svg_26"/><rect fill="#000000" style="color: rgb(0, 0, 0);" stroke-dashoffset="" fill-rule="nonzero" x="55.77777075767517" y="385.3333342075348" width="399" height="32" class="" fill-opacity="1" id="svg_25"/><rect fill="#000000" style="color: rgb(0, 0, 0);" stroke-dashoffset="" fill-rule="nonzero" x="56.33332657814026" y="319.77777910232544" width="399" height="32" class="" fill-opacity="1" id="svg_24"/><rect fill="#000000" style="color: rgb(0, 0, 0);" stroke-dashoffset="" fill-rule="nonzero" x="58.555548667907715" y="255.33332872390747" width="399" height="32" class="" fill-opacity="1" id="svg_23"/></g></svg>
